  0
SECTION
  2
BLOCKS
  0
ENDSEC
  0
SECTION
  2
ENTITIES
  0
LINE
  8
0
 10
53.776
 20
24.5
 11
68.6973
 21
42.2825
  0
LINE
  8
0
 10
68.6973
 20
42.2825
 11
70.4331
 21
37.5133
  0
LINE
  8
0
 10
70.4331
 20
37.5133
 11
70
 21
37.3205
  0
LINE
  8
0
 10
70
 20
37.3205
 11
66.6174
 21
34.8629
  0
LINE
  8
0
 10
66.6174
 20
34.8629
 11
63.8197
 21
31.7557
  0
LINE
  8
0
 10
63.8197
 20
31.7557
 11
61.7291
 21
28.1347
  0
LINE
  8
0
 10
61.7291
 20
28.1347
 11
60.4371
 21
24.1582
  0
LINE
  8
0
 10
60.4371
 20
24.1582
 11
60
 21
20
  0
LINE
  8
0
 10
60
 20
20
 11
60.4371
 21
15.8418
  0
LINE
  8
0
 10
60.4371
 20
15.8418
 11
61.7291
 21
11.8653
  0
LINE
  8
0
 10
61.7291
 20
11.8653
 11
63.8197
 21
8.24431
  0
LINE
  8
0
 10
63.8197
 20
8.24431
 11
66.6174
 21
5.13712
  0
LINE
  8
0
 10
66.6174
 20
5.13712
 11
70
 21
2.6795
  0
LINE
  8
0
 10
70
 20
2.6795
 11
73.8197
 21
0.978882
  0
LINE
  8
0
 10
73.8197
 20
0.978882
 11
77.9094
 21
0.109573
  0
LINE
  8
0
 10
77.9094
 20
0.109573
 11
82.0906
 21
0.109573
  0
LINE
  8
0
 10
82.0906
 20
0.109573
 11
86.1803
 21
0.978882
  0
LINE
  8
0
 10
86.1803
 20
0.978882
 11
90
 21
2.6795
  0
LINE
  8
0
 10
90
 20
2.6795
 11
93.3826
 21
5.13712
  0
LINE
  8
0
 10
93.3826
 20
5.13712
 11
96.1803
 21
8.24431
  0
LINE
  8
0
 10
96.1803
 20
8.24431
 11
98.2709
 21
11.8653
  0
LINE
  8
0
 10
98.2709
 20
11.8653
 11
99.5629
 21
15.8418
  0
LINE
  8
0
 10
99.5629
 20
15.8418
 11
100
 21
20
  0
LINE
  8
0
 10
100
 20
20
 11
99.5629
 21
24.1582
  0
LINE
  8
0
 10
99.5629
 20
24.1582
 11
98.2709
 21
28.1347
  0
LINE
  8
0
 10
98.2709
 20
28.1347
 11
96.1803
 21
31.7557
  0
LINE
  8
0
 10
96.1803
 20
31.7557
 11
93.3826
 21
34.8629
  0
LINE
  8
0
 10
93.3826
 20
34.8629
 11
90
 21
37.3205
  0
LINE
  8
0
 10
90
 20
37.3205
 11
86.1803
 21
39.0211
  0
LINE
  8
0
 10
86.1803
 20
39.0211
 11
82.0906
 21
39.8904
  0
LINE
  8
0
 10
82.0906
 20
39.8904
 11
77.9094
 21
39.8904
  0
LINE
  8
0
 10
77.9094
 20
39.8904
 11
73.8197
 21
39.0211
  0
LINE
  8
0
 10
73.8197
 20
39.0211
 11
73.1805
 21
38.7365
  0
LINE
  8
0
 10
73.1805
 20
38.7365
 11
70
 21
47.4748
  0
LINE
  8
0
 10
70
 20
47.4748
 11
70
 21
48
  0
LINE
  8
0
 10
70
 20
48
 11
69.8088
 21
48
  0
LINE
  8
0
 10
69.8088
 20
48
 11
66
 21
58.4647
  0
LINE
  8
0
 10
66
 20
58.4647
 11
66
 21
60
  0
LINE
  8
0
 10
66
 20
60
 11
56
 21
60
  0
LINE
  8
0
 10
56
 20
60
 11
56
 21
57
  0
LINE
  8
0
 10
56
 20
57
 11
63.3405
 21
57
  0
LINE
  8
0
 10
63.3405
 20
57
 11
66.6163
 21
48
  0
LINE
  8
0
 10
66.6163
 20
48
 11
36.2428
 21
48
  0
LINE
  8
0
 10
36.2428
 20
48
 11
33.6309
 21
53.1262
  0
LINE
  8
0
 10
33.6309
 20
53.1262
 11
38
 21
54
  0
LINE
  8
0
 10
38
 20
54
 11
38
 21
56
  0
LINE
  8
0
 10
38
 20
56
 11
28
 21
56
  0
LINE
  8
0
 10
28
 20
56
 11
28
 21
52
  0
LINE
  8
0
 10
28
 20
52
 11
30.5753
 21
52.5151
  0
LINE
  8
0
 10
30.5753
 20
52.5151
 11
33.6366
 21
46.5068
  0
LINE
  8
0
 10
33.6366
 20
46.5068
 11
28.1933
 21
38.1249
  0
LINE
  8
0
 10
28.1933
 20
38.1249
 11
26.1803
 21
39.0211
  0
LINE
  8
0
 10
26.1803
 20
39.0211
 11
22.0906
 21
39.8904
  0
LINE
  8
0
 10
22.0906
 20
39.8904
 11
17.9094
 21
39.8904
  0
LINE
  8
0
 10
17.9094
 20
39.8904
 11
13.8197
 21
39.0211
  0
LINE
  8
0
 10
13.8197
 20
39.0211
 11
10
 21
37.3205
  0
LINE
  8
0
 10
10
 20
37.3205
 11
6.6174
 21
34.8629
  0
LINE
  8
0
 10
6.6174
 20
34.8629
 11
3.81967
 21
31.7557
  0
LINE
  8
0
 10
3.81967
 20
31.7557
 11
1.7291
 21
28.1347
  0
LINE
  8
0
 10
1.7291
 20
28.1347
 11
0.437057
 21
24.1582
  0
LINE
  8
0
 10
0.437057
 20
24.1582
 11
0
 21
20
  0
LINE
  8
0
 10
0
 20
20
 11
0.437057
 21
15.8418
  0
LINE
  8
0
 10
0.437057
 20
15.8418
 11
1.7291
 21
11.8653
  0
LINE
  8
0
 10
1.7291
 20
11.8653
 11
3.81967
 21
8.24431
  0
LINE
  8
0
 10
3.81967
 20
8.24431
 11
6.6174
 21
5.13712
  0
LINE
  8
0
 10
6.6174
 20
5.13712
 11
10
 21
2.6795
  0
LINE
  8
0
 10
10
 20
2.6795
 11
13.8197
 21
0.978882
  0
LINE
  8
0
 10
13.8197
 20
0.978882
 11
17.9094
 21
0.109573
  0
LINE
  8
0
 10
17.9094
 20
0.109573
 11
22.0906
 21
0.109573
  0
LINE
  8
0
 10
22.0906
 20
0.109573
 11
26.1803
 21
0.978882
  0
LINE
  8
0
 10
26.1803
 20
0.978882
 11
30
 21
2.6795
  0
LINE
  8
0
 10
30
 20
2.6795
 11
33.3826
 21
5.13712
  0
LINE
  8
0
 10
33.3826
 20
5.13712
 11
36.1803
 21
8.24431
  0
LINE
  8
0
 10
36.1803
 20
8.24431
 11
38.2709
 21
11.8653
  0
LINE
  8
0
 10
38.2709
 20
11.8653
 11
39.5629
 21
15.8418
  0
LINE
  8
0
 10
39.5629
 20
15.8418
 11
40
 21
20
  0
LINE
  8
0
 10
40
 20
20
 11
45
 21
20
  0
LINE
  8
0
 10
45
 20
20
 11
45
 21
-370.117
  0
LINE
  8
0
 10
45
 20
-370.117
 11
44.5
 21
-370.34
  0
LINE
  8
0
 10
44.5
 20
-370.34
 11
42.8087
 21
-371.569
  0
LINE
  8
0
 10
42.8087
 20
-371.569
 11
41.4098
 21
-373.122
  0
LINE
  8
0
 10
41.4098
 20
-373.122
 11
40.3645
 21
-374.933
  0
LINE
  8
0
 10
40.3645
 20
-374.933
 11
39.7185
 21
-376.921
  0
LINE
  8
0
 10
39.7185
 20
-376.921
 11
39.5
 21
-379
  0
LINE
  8
0
 10
39.5
 20
-379
 11
39.7185
 21
-381.079
  0
LINE
  8
0
 10
39.7185
 20
-381.079
 11
40.3645
 21
-383.067
  0
LINE
  8
0
 10
40.3645
 20
-383.067
 11
41.4098
 21
-384.878
  0
LINE
  8
0
 10
41.4098
 20
-384.878
 11
42.8087
 21
-386.431
  0
LINE
  8
0
 10
42.8087
 20
-386.431
 11
44.5
 21
-387.66
  0
LINE
  8
0
 10
44.5
 20
-387.66
 11
46.4098
 21
-388.511
  0
LINE
  8
0
 10
46.4098
 20
-388.511
 11
48.4547
 21
-388.945
  0
LINE
  8
0
 10
48.4547
 20
-388.945
 11
50.5453
 21
-388.945
  0
LINE
  8
0
 10
50.5453
 20
-388.945
 11
52.5902
 21
-388.511
  0
LINE
  8
0
 10
52.5902
 20
-388.511
 11
54.5
 21
-387.66
  0
LINE
  8
0
 10
54.5
 20
-387.66
 11
56.1913
 21
-386.431
  0
LINE
  8
0
 10
56.1913
 20
-386.431
 11
57.5902
 21
-384.878
  0
LINE
  8
0
 10
57.5902
 20
-384.878
 11
58.6355
 21
-383.067
  0
LINE
  8
0
 10
58.6355
 20
-383.067
 11
59.2815
 21
-381.079
  0
LINE
  8
0
 10
59.2815
 20
-381.079
 11
59.5
 21
-379
  0
LINE
  8
0
 10
59.5
 20
-379
 11
59.2815
 21
-376.921
  0
LINE
  8
0
 10
59.2815
 20
-376.921
 11
58.6355
 21
-374.933
  0
LINE
  8
0
 10
58.6355
 20
-374.933
 11
57.5902
 21
-373.122
  0
LINE
  8
0
 10
57.5902
 20
-373.122
 11
56.1913
 21
-371.569
  0
LINE
  8
0
 10
56.1913
 20
-371.569
 11
54.5
 21
-370.34
  0
LINE
  8
0
 10
54.5
 20
-370.34
 11
54
 21
-370.117
  0
LINE
  8
0
 10
54
 20
-370.117
 11
54
 21
24.5
  0
LINE
  8
0
 10
54
 20
24.5
 11
53.776
 21
24.5
  0
LINE
  8
0
 10
37.7714
 20
45
 11
67.0613
 21
45
  0
LINE
  8
0
 10
67.0613
 20
45
 11
48.8374
 21
23.2817
  0
LINE
  8
0
 10
48.8374
 20
23.2817
 11
37.7714
 21
45
  0
LINE
  8
0
 10
39.6847
 20
23
 11
39.5629
 21
24.1582
  0
LINE
  8
0
 10
39.5629
 20
24.1582
 11
38.2709
 21
28.1347
  0
LINE
  8
0
 10
38.2709
 20
28.1347
 11
36.1803
 21
31.7557
  0
LINE
  8
0
 10
36.1803
 20
31.7557
 11
33.3826
 21
34.8629
  0
LINE
  8
0
 10
33.3826
 20
34.8629
 11
30.848
 21
36.7044
  0
LINE
  8
0
 10
30.848
 20
36.7044
 11
35.2093
 21
43.4203
  0
LINE
  8
0
 10
35.2093
 20
43.4203
 11
45.614
 21
23
  0
LINE
  8
0
 10
45.614
 20
23
 11
39.6847
 21
23
  0
LINE
  8
0
 10
18.223
 20
3.09314
 11
14.7467
 21
3.83205
  0
LINE
  8
0
 10
14.7467
 20
3.83205
 11
11.5
 21
5.27757
  0
LINE
  8
0
 10
11.5
 20
5.27757
 11
8.62479
 21
7.36655
  0
LINE
  8
0
 10
8.62479
 20
7.36655
 11
6.24672
 21
10.0077
  0
LINE
  8
0
 10
6.24672
 20
10.0077
 11
4.46974
 21
13.0855
  0
LINE
  8
0
 10
4.46974
 20
13.0855
 11
3.37151
 21
16.4655
  0
LINE
  8
0
 10
3.37151
 20
16.4655
 11
3
 21
20
  0
LINE
  8
0
 10
3
 20
20
 11
3.37151
 21
23.5345
  0
LINE
  8
0
 10
3.37151
 20
23.5345
 11
4.46974
 21
26.9145
  0
LINE
  8
0
 10
4.46974
 20
26.9145
 11
6.24672
 21
29.9923
  0
LINE
  8
0
 10
6.24672
 20
29.9923
 11
8.62479
 21
32.6335
  0
LINE
  8
0
 10
8.62479
 20
32.6335
 11
11.5
 21
34.7224
  0
LINE
  8
0
 10
11.5
 20
34.7224
 11
14.7467
 21
36.168
  0
LINE
  8
0
 10
14.7467
 20
36.168
 11
18.223
 21
36.9069
  0
LINE
  8
0
 10
18.223
 20
36.9069
 11
21.777
 21
36.9069
  0
LINE
  8
0
 10
21.777
 20
36.9069
 11
25.2533
 21
36.168
  0
LINE
  8
0
 10
25.2533
 20
36.168
 11
26.5481
 21
35.5915
  0
LINE
  8
0
 10
26.5481
 20
35.5915
 11
17.484
 21
21.6339
  0
LINE
  8
0
 10
17.484
 20
21.6339
 11
20
 21
20
  0
LINE
  8
0
 10
20
 20
20
 11
37
 21
20
  0
LINE
  8
0
 10
37
 20
20
 11
36.6285
 21
16.4655
  0
LINE
  8
0
 10
36.6285
 20
16.4655
 11
35.5303
 21
13.0855
  0
LINE
  8
0
 10
35.5303
 20
13.0855
 11
33.7533
 21
10.0077
  0
LINE
  8
0
 10
33.7533
 20
10.0077
 11
31.3752
 21
7.36655
  0
LINE
  8
0
 10
31.3752
 20
7.36655
 11
28.5
 21
5.27757
  0
LINE
  8
0
 10
28.5
 20
5.27757
 11
25.2533
 21
3.83205
  0
LINE
  8
0
 10
25.2533
 20
3.83205
 11
21.777
 21
3.09314
  0
LINE
  8
0
 10
21.777
 20
3.09314
 11
18.223
 21
3.09314
  0
LINE
  8
0
 10
78.223
 20
3.09314
 11
74.7467
 21
3.83205
  0
LINE
  8
0
 10
74.7467
 20
3.83205
 11
71.5
 21
5.27757
  0
LINE
  8
0
 10
71.5
 20
5.27757
 11
68.6248
 21
7.36655
  0
LINE
  8
0
 10
68.6248
 20
7.36655
 11
66.2467
 21
10.0077
  0
LINE
  8
0
 10
66.2467
 20
10.0077
 11
64.4697
 21
13.0855
  0
LINE
  8
0
 10
64.4697
 20
13.0855
 11
63.3715
 21
16.4655
  0
LINE
  8
0
 10
63.3715
 20
16.4655
 11
63
 21
20
  0
LINE
  8
0
 10
63
 20
20
 11
63.3715
 21
23.5345
  0
LINE
  8
0
 10
63.3715
 20
23.5345
 11
64.4697
 21
26.9145
  0
LINE
  8
0
 10
64.4697
 20
26.9145
 11
66.2467
 21
29.9923
  0
LINE
  8
0
 10
66.2467
 20
29.9923
 11
68.6248
 21
32.6335
  0
LINE
  8
0
 10
68.6248
 20
32.6335
 11
71.4596
 21
34.6931
  0
LINE
  8
0
 10
71.4596
 20
34.6931
 11
77.1809
 21
18.9739
  0
LINE
  8
0
 10
77.1809
 20
18.9739
 11
80
 21
20
  0
LINE
  8
0
 10
80
 20
20
 11
74.2034
 21
35.926
  0
LINE
  8
0
 10
74.2034
 20
35.926
 11
74.7467
 21
36.168
  0
LINE
  8
0
 10
74.7467
 20
36.168
 11
78.223
 21
36.9069
  0
LINE
  8
0
 10
78.223
 20
36.9069
 11
81.777
 21
36.9069
  0
LINE
  8
0
 10
81.777
 20
36.9069
 11
85.2533
 21
36.168
  0
LINE
  8
0
 10
85.2533
 20
36.168
 11
88.5
 21
34.7224
  0
LINE
  8
0
 10
88.5
 20
34.7224
 11
91.3752
 21
32.6335
  0
LINE
  8
0
 10
91.3752
 20
32.6335
 11
93.7533
 21
29.9923
  0
LINE
  8
0
 10
93.7533
 20
29.9923
 11
95.5303
 21
26.9145
  0
LINE
  8
0
 10
95.5303
 20
26.9145
 11
96.6285
 21
23.5345
  0
LINE
  8
0
 10
96.6285
 20
23.5345
 11
97
 21
20
  0
LINE
  8
0
 10
97
 20
20
 11
96.6285
 21
16.4655
  0
LINE
  8
0
 10
96.6285
 20
16.4655
 11
95.5303
 21
13.0855
  0
LINE
  8
0
 10
95.5303
 20
13.0855
 11
93.7533
 21
10.0077
  0
LINE
  8
0
 10
93.7533
 20
10.0077
 11
91.3752
 21
7.36655
  0
LINE
  8
0
 10
91.3752
 20
7.36655
 11
88.5
 21
5.27757
  0
LINE
  8
0
 10
88.5
 20
5.27757
 11
85.2533
 21
3.83205
  0
LINE
  8
0
 10
85.2533
 20
3.83205
 11
81.777
 21
3.09314
  0
LINE
  8
0
 10
81.777
 20
3.09314
 11
78.223
 21
3.09314
  0
LINE
  8
0
 10
21.9482
 20
23
 11
29.2208
 21
34.1987
  0
LINE
  8
0
 10
29.2208
 20
34.1987
 11
31.3752
 21
32.6335
  0
LINE
  8
0
 10
31.3752
 20
32.6335
 11
33.7533
 21
29.9923
  0
LINE
  8
0
 10
33.7533
 20
29.9923
 11
35.5303
 21
26.9145
  0
LINE
  8
0
 10
35.5303
 20
26.9145
 11
36.6285
 21
23.5345
  0
LINE
  8
0
 10
36.6285
 20
23.5345
 11
36.6847
 21
23
  0
LINE
  8
0
 10
36.6847
 20
23
 11
21.9482
 21
23
  0
ENDSEC
  0
SECTION
  2
OBJECTS
  0
DICTIONARY
  0
ENDSEC
  0
EOF
